<svg width="87" height="38" viewBox="0 0 87 38" fill="none" xmlns="http://www.w3.org/2000/svg">
<path d="M86.75 19C86.75 21.5405 85.5723 23.9805 83.402 26.2217C81.2305 28.4642 78.0762 30.495 74.1591 32.2059C66.3255 35.6275 55.4861 37.75 43.5 37.75C31.5139 37.75 20.6745 35.6275 12.8409 32.2059C8.92377 30.495 5.76951 28.4642 3.59804 26.2217C1.42773 23.9805 0.25 21.5405 0.25 19C0.25 16.4595 1.42773 14.0195 3.59804 11.7783C5.76951 9.53585 8.92377 7.50501 12.8409 5.79407C20.6745 2.37252 31.5139 0.25 43.5 0.25C55.4861 0.25 66.3255 2.37252 74.1591 5.79407C78.0762 7.50501 81.2305 9.53585 83.402 11.7783C85.5723 14.0195 86.75 16.4595 86.75 19Z" stroke="#0DB760" stroke-width="0.5"/>
</svg>
